<?xml version="1.0" encoding="UTF-8" standalone="no"?>
<!-- Created with Inkscape (http://www.inkscape.org/) -->

<svg
   xmlns:dc="http://purl.org/dc/elements/1.1/"
   xmlns:cc="http://creativecommons.org/ns#"
   xmlns:rdf="http://www.w3.org/1999/02/22-rdf-syntax-ns#"
   xmlns:svg="http://www.w3.org/2000/svg"
   xmlns="http://www.w3.org/2000/svg"
   xmlns:xlink="http://www.w3.org/1999/xlink"
   xmlns:sodipodi="http://sodipodi.sourceforge.net/DTD/sodipodi-0.dtd"
   xmlns:inkscape="http://www.inkscape.org/namespaces/inkscape"
   width="7.5in"
   height="2.2538152in"
   viewBox="0 0 190.5 57.246905"
   version="1.1"
   id="svg8"
   sodipodi:docname="Web_Concealed_Coalition_2018.svg"
   inkscape:version="0.92.2 (5c3e80d, 2017-08-06)">
  <defs
     id="defs2">
    <linearGradient
       inkscape:collect="always"
       xlink:href="#linearGradient5180"
       id="linearGradient5182"
       x1="-147.65694"
       y1="-453.42847"
       x2="-170.90077"
       y2="-458.61234"
       gradientUnits="userSpaceOnUse" />
    <linearGradient
       inkscape:collect="always"
       id="linearGradient5180">
      <stop
         style="stop-color:#ffffff;stop-opacity:1;"
         offset="0"
         id="stop5176" />
      <stop
         style="stop-color:#ffffff;stop-opacity:0;"
         offset="1"
         id="stop5178" />
    </linearGradient>
  </defs>
  <sodipodi:namedview
     id="base"
     pagecolor="#ffffff"
     bordercolor="#666666"
     borderopacity="1.0"
     inkscape:pageopacity="0.0"
     inkscape:pageshadow="2"
     inkscape:zoom="0.35"
     inkscape:cx="400"
     inkscape:cy="560"
     inkscape:document-units="px"
     inkscape:current-layer="flowRoot4897"
     showgrid="true"
     units="in"
     inkscape:showpageshadow="false"
     inkscape:window-width="1920"
     inkscape:window-height="1018"
     inkscape:window-x="-8"
     inkscape:window-y="-8"
     inkscape:window-maximized="1"
     inkscape:snap-bbox="true"
     inkscape:bbox-paths="true"
     inkscape:bbox-nodes="true"
     inkscape:snap-bbox-edge-midpoints="true"
     inkscape:snap-bbox-midpoints="true"
     inkscape:object-paths="true"
     inkscape:snap-intersection-paths="true"
     inkscape:snap-smooth-nodes="true"
     inkscape:snap-midpoints="true"
     inkscape:snap-object-midpoints="true"
     inkscape:snap-center="true"
     inkscape:snap-text-baseline="true"
     inkscape:snap-page="true"
     fit-margin-top="0"
     fit-margin-left="0"
     fit-margin-right="0"
     fit-margin-bottom="0">
    <inkscape:grid
       type="xygrid"
       id="grid3953"
       units="in"
       spacingx="0.254"
       spacingy="0.254"
       empspacing="50"
       color="#000000"
       opacity="0.09803922"
       empcolor="#000000"
       empopacity="0.19607843"
       originx="-12.829117"
       originy="-158.37494" />
  </sodipodi:namedview>
  <metadata
     id="metadata5">
    <rdf:RDF>
      <cc:Work
         rdf:about="">
        <dc:format>image/svg+xml</dc:format>
        <dc:type
           rdf:resource="http://purl.org/dc/dcmitype/StillImage" />
        <dc:title></dc:title>
      </cc:Work>
    </rdf:RDF>
  </metadata>
  <g
     inkscape:label="Layer 1"
     inkscape:groupmode="layer"
     id="layer1"
     transform="translate(-12.829117,-81.37815)">
    <g
       id="g5462"
       transform="matrix(0.82607269,0,0,0.82578652,235.88689,180.0025)"
       style="stroke-width:1.21075714"
       inkscape:export-xdpi="300"
       inkscape:export-ydpi="300">
      <g
         id="g5431"
         style="stroke-width:1.21075714">
        <g
           id="g5003"
           style="stroke-width:1.21075714" />
        <g
           id="g4851">
          <g
             aria-label="Coalition"
             transform="matrix(2.3814294,0,0,2.3814294,-479.68883,-776.57285)"
             style="font-style:italic;font-variant:normal;font-weight:normal;font-stretch:normal;font-size:18.66664505px;line-height:25px;font-family:'Hemi Head';-inkscape-font-specification:'Hemi Head, Italic';font-variant-ligatures:normal;font-variant-caps:normal;font-variant-numeric:normal;font-feature-settings:normal;text-align:start;letter-spacing:0px;word-spacing:0px;writing-mode:lr-tb;text-anchor:start;fill:#000000;fill-opacity:1;stroke:none;stroke-width:0.13451841px;stroke-linecap:butt;stroke-linejoin:miter;stroke-opacity:1"
             id="flowRoot4897">
            <path
               d="m 99.079996,305.05466 q -0.951998,0 -1.362665,-0.336 -0.410666,-0.336 -0.410666,-1.04533 0,-0.18667 0.01867,-0.37333 0.01867,-0.20534 0.07467,-0.448 l 1.735998,-8.23199 q 0.242667,-1.12 0.821333,-1.66133 0.597331,-0.54134 1.792001,-0.54134 h 7.11199 l -0.52267,2.52 h -5.71199 q -0.448,0 -0.616,0.14933 -0.14933,0.13067 -0.24267,0.56 l -1.32533,6.16 q -0.0187,0.0933 -0.0373,0.168 0,0.056 0,0.13066 0,0.20533 0.13066,0.29867 0.13067,0.0933 0.48534,0.0933 h 5.74932 l -0.54133,2.55733 z"
               style="font-style:italic;font-variant:normal;font-weight:normal;font-stretch:normal;font-size:18.66664505px;font-family:'Hemi Head';-inkscape-font-specification:'Hemi Head, Italic';font-variant-ligatures:normal;font-variant-caps:normal;font-variant-numeric:normal;font-feature-settings:normal;text-align:start;writing-mode:lr-tb;text-anchor:start;stroke-width:0.13451841px"
               id="path4776" />
            <path
               d="m 109.62548,305.05466 q -0.78399,0 -1.13866,-0.26133 -0.336,-0.28 -0.336,-0.85867 0,-0.26133 0.0933,-0.728 l 1.21333,-5.74932 q 0.20534,-0.952 0.672,-1.4 0.48534,-0.448 1.49334,-0.448 h 6.42132 q 0.82133,0 1.15733,0.28 0.336,0.26133 0.336,0.84 0,0.26133 -0.0933,0.728 l -1.21333,5.74932 q -0.20534,0.952 -0.69067,1.4 -0.46666,0.448 -1.49333,0.448 z m 7,-6.66399 q 0.0373,-0.18667 0.0373,-0.224 0,-0.29867 -0.504,-0.29867 h -3.696 q -0.29866,0 -0.42933,0.112 -0.112,0.0933 -0.168,0.41067 l -0.80266,3.84533 q -0.0187,0.0747 -0.0373,0.13066 0,0.056 0,0.112 0,0.26134 0.41067,0.26134 h 3.69599 q 0.336,0 0.48534,-0.112 0.14933,-0.112 0.20533,-0.392 z"
               style="font-style:italic;font-variant:normal;font-weight:normal;font-stretch:normal;font-size:18.66664505px;font-family:'Hemi Head';-inkscape-font-specification:'Hemi Head, Italic';font-variant-ligatures:normal;font-variant-caps:normal;font-variant-numeric:normal;font-feature-settings:normal;text-align:start;writing-mode:lr-tb;text-anchor:start;stroke-width:0.13451841px"
               id="path4778" />
            <path
               d="m 121.32597,305.05466 q -0.70933,0 -1.02667,-0.26133 -0.31733,-0.28 -0.31733,-0.82133 0,-0.26134 0.0933,-0.69067 l 0.46666,-2.24 q 0.112,-0.52266 0.26133,-0.87733 0.14934,-0.35467 0.37334,-0.56 0.224,-0.20533 0.54133,-0.28 0.31733,-0.0933 0.76533,-0.0933 h 4.79733 l -0.336,1.60533 h -3.43466 q -0.26134,0 -0.37334,0.0933 -0.11199,0.0933 -0.16799,0.392 l -0.20534,0.98933 q -0.0187,0.0933 -0.0373,0.14934 0,0.056 0,0.112 0,0.24266 0.35466,0.24266 h 4.368 l 0.98933,-4.62932 q 0.0187,-0.0747 0.0187,-0.20534 0,-0.14933 -0.0933,-0.224 -0.0933,-0.0933 -0.35467,-0.0933 h -6.40266 l 0.42933,-2.05333 h 7.72799 q 0.82134,0 1.15734,0.28 0.336,0.26133 0.336,0.84 0,0.26133 -0.0933,0.728 l -1.60533,7.59732 z"
               style="font-style:italic;font-variant:normal;font-weight:normal;font-stretch:normal;font-size:18.66664505px;font-family:'Hemi Head';-inkscape-font-specification:'Hemi Head, Italic';font-variant-ligatures:normal;font-variant-caps:normal;font-variant-numeric:normal;font-feature-settings:normal;text-align:start;writing-mode:lr-tb;text-anchor:start;stroke-width:0.13451841px"
               id="path4780" />
            <path
               d="m 131.534,305.05466 2.83733,-13.40265 h 2.61333 l -2.83733,13.40265 z"
               style="font-style:italic;font-variant:normal;font-weight:normal;font-stretch:normal;font-size:18.66664505px;font-family:'Hemi Head';-inkscape-font-specification:'Hemi Head, Italic';font-variant-ligatures:normal;font-variant-caps:normal;font-variant-numeric:normal;font-feature-settings:normal;text-align:start;writing-mode:lr-tb;text-anchor:start;stroke-width:0.13451841px"
               id="path4782" />
            <path
               d="m 136.20154,305.05466 1.99733,-9.44532 h 2.61333 l -1.99733,9.44532 z m 2.23999,-10.56532 0.59734,-2.83733 h 2.63199 l -0.59733,2.83733 z"
               style="font-style:italic;font-variant:normal;font-weight:normal;font-stretch:normal;font-size:18.66664505px;font-family:'Hemi Head';-inkscape-font-specification:'Hemi Head, Italic';font-variant-ligatures:normal;font-variant-caps:normal;font-variant-numeric:normal;font-feature-settings:normal;text-align:start;writing-mode:lr-tb;text-anchor:start;stroke-width:0.13451841px"
               id="path4784" />
            <path
               d="m 142.62111,305.05466 q -0.784,0 -1.13866,-0.26133 -0.336,-0.28 -0.336,-0.85867 0,-0.26133 0.0933,-0.728 l 2.16533,-10.22932 h 2.61333 l -0.56,2.632 h 2.27733 l -0.42933,2.05333 h -2.27733 l -1.02667,4.83466 q -0.0373,0.18667 -0.0373,0.24267 0,0.26133 0.41067,0.26133 h 1.71733 l -0.42933,2.05333 z"
               style="font-style:italic;font-variant:normal;font-weight:normal;font-stretch:normal;font-size:18.66664505px;font-family:'Hemi Head';-inkscape-font-specification:'Hemi Head, Italic';font-variant-ligatures:normal;font-variant-caps:normal;font-variant-numeric:normal;font-feature-settings:normal;text-align:start;writing-mode:lr-tb;text-anchor:start;stroke-width:0.13451841px"
               id="path4786" />
            <path
               d="m 147.32131,305.05466 1.99734,-9.44532 h 2.61333 l -1.99734,9.44532 z m 2.24,-10.56532 0.59733,-2.83733 h 2.632 l -0.59733,2.83733 z"
               style="font-style:italic;font-variant:normal;font-weight:normal;font-stretch:normal;font-size:18.66664505px;font-family:'Hemi Head';-inkscape-font-specification:'Hemi Head, Italic';font-variant-ligatures:normal;font-variant-caps:normal;font-variant-numeric:normal;font-feature-settings:normal;text-align:start;writing-mode:lr-tb;text-anchor:start;stroke-width:0.13451841px"
               id="path4788" />
            <path
               d="m 153.70356,305.05466 q -0.784,0 -1.13867,-0.26133 -0.336,-0.28 -0.336,-0.85867 0,-0.26133 0.0933,-0.728 l 1.21333,-5.74932 q 0.20533,-0.952 0.672,-1.4 0.48533,-0.448 1.49333,-0.448 h 6.42132 q 0.82134,0 1.15734,0.28 0.336,0.26133 0.336,0.84 0,0.26133 -0.0933,0.728 l -1.21333,5.74932 q -0.20533,0.952 -0.69067,1.4 -0.46666,0.448 -1.49333,0.448 z m 6.99999,-6.66399 q 0.0373,-0.18667 0.0373,-0.224 0,-0.29867 -0.504,-0.29867 h -3.69599 q -0.29867,0 -0.42934,0.112 -0.112,0.0933 -0.168,0.41067 l -0.80266,3.84533 q -0.0187,0.0747 -0.0373,0.13066 0,0.056 0,0.112 0,0.26134 0.41066,0.26134 h 3.696 q 0.336,0 0.48533,-0.112 0.14933,-0.112 0.20533,-0.392 z"
               style="font-style:italic;font-variant:normal;font-weight:normal;font-stretch:normal;font-size:18.66664505px;font-family:'Hemi Head';-inkscape-font-specification:'Hemi Head, Italic';font-variant-ligatures:normal;font-variant-caps:normal;font-variant-numeric:normal;font-feature-settings:normal;text-align:start;writing-mode:lr-tb;text-anchor:start;stroke-width:0.13451841px"
               id="path4790" />
            <path
               d="m 171.34004,305.05466 1.4,-6.66399 q 0.0373,-0.18667 0.0373,-0.224 0,-0.29867 -0.46667,-0.29867 h -3.90132 q -0.28,0 -0.41067,0.112 -0.13067,0.0933 -0.20533,0.41067 l -1.4,6.66399 h -2.61333 l 1.99733,-9.44532 h 2.52 l -0.224,1.02666 q 0.672,-1.02666 1.84799,-1.02666 h 4.23733 q 0.76533,0 1.10133,0.26133 0.35467,0.26134 0.35467,0.87733 0,0.35467 -0.0747,0.70934 l -1.60533,7.59732 z"
               style="font-style:italic;font-variant:normal;font-weight:normal;font-stretch:normal;font-size:18.66664505px;font-family:'Hemi Head';-inkscape-font-specification:'Hemi Head, Italic';font-variant-ligatures:normal;font-variant-caps:normal;font-variant-numeric:normal;font-feature-settings:normal;text-align:start;writing-mode:lr-tb;text-anchor:start;stroke-width:0.13451841px"
               id="path4792" />
          </g>
          <path
             sodipodi:nodetypes="ccccccccccssssccccccccccccccccccc"
             inkscape:connector-curvature="0"
             id="path4907"
             transform="matrix(0.70235252,0,0,0.70235252,-275.93664,-262.02725)"
             d="m 321.60547,229.4082 -0.32227,1.82227 c 0,0 -0.26754,0.21107 -0.45898,0.35156 0,0 -2.83838,-0.0298 -3.57617,0.0332 0,0 -0.3063,-0.12086 -0.50196,-0.34179 0,0 -0.36787,-0.3153 -0.63476,0.10156 l -2.25781,6.46484 c 0,0 -0.0602,1.25672 0.0937,2.33789 0,0 0.0972,0.9423 -0.5625,1.58399 l -0.72657,0.55273 c 0.10537,0.2305 0.33334,0.41194 0.60352,0.39258 l 5.86045,-0.41996 c 0.36961,-0.0265 0.59259,-0.30556 0.66992,-0.66797 l 2.46377,-11.54683 c 0.0759,-0.35564 -0.28947,-0.65321 -0.65039,-0.66407 z m -3.70313,3.07813 c 0.60834,-0.006 1.12159,0.11409 1.11914,0.11719 1.39632,0.29014 1.2461,1.93164 1.2461,1.93164 l 0.28515,0.0586 -0.86328,3.04102 c -2.31208,-0.22085 -2.72265,-2.32422 -2.72265,-2.32422 -0.002,-0.23126 -0.22266,-0.27735 -0.22266,-0.27735 -0.31052,0.14099 -0.31641,0.90821 -0.31641,0.90821 0.33507,2.22208 1.61915,2.46289 1.61915,2.46289 0.36635,0.0761 0.60546,0.30273 0.60546,0.30273 0.065,0.29472 0.38477,0.74219 0.38477,0.74219 -0.3256,0.49119 -1.21289,0.88476 -1.21289,0.88476 -2.21966,0.56633 -2.83789,-0.58984 -2.83789,-0.58984 -0.72639,-0.99822 -0.38281,-2.18555 -0.38281,-2.18555 l 1.61328,-4.43359 c 0.37412,-0.49913 1.07721,-0.63258 1.68554,-0.63867 z"
             style="fill:#000000;stroke-width:0.45610538" />
          <path
             sodipodi:nodetypes="csccccccccccccccccc"
             inkscape:connector-curvature="0"
             id="path4905"
             transform="matrix(0.85560826,-0.0870649,0.07110274,0.69874421,-366.9611,-246.17715)"
             d="m 352.05859,263.25586 c -0.37056,0 -0.66992,0.29936 -0.66992,0.66992 v 6.13477 l 0.21094,-0.0703 c 0,0 0.88476,-0.17423 0.94922,0.55665 0,0 -0.16565,0.60831 0.6875,0.58007 0,0 0.65198,-0.19589 0.35156,-0.84961 0,0 -0.16557,-0.34528 0.0391,-0.58398 l 0.55469,0.62695 c 0,0 0.72439,0.22918 1.10938,0.12891 l 0.0547,-0.26953 -0.3125,-0.40039 0.11914,-0.84766 -0.13476,-0.10352 0.78515,-3.17187 -0.80859,-0.70508 0.37109,-1.69531 -1.29232,-3.00587 z"
             style="fill:#1d1d1d;fill-opacity:1;stroke-width:0.41217992" />
          <path
             transform="matrix(2.3814294,0,0,2.3814294,-501.75092,-813.02601)"
             d="m 99.079996,305.05466 q -0.951998,0 -1.362665,-0.336 -0.410666,-0.336 -0.410666,-1.04533 0,-0.18667 0.01867,-0.37333 0.01867,-0.20534 0.07467,-0.448 l 1.735998,-8.23199 q 0.242667,-1.12 0.821333,-1.66133 0.597334,-0.54134 1.792004,-0.54134 h 7.11199 l -0.52267,2.52 h -5.71199 q -0.448,0 -0.616,0.14933 -0.14933,0.13067 -0.24267,0.56 l -1.32533,6.16 q -0.0187,0.0933 -0.0373,0.168 0,0.056 0,0.13066 0,0.20533 0.13066,0.29867 0.13067,0.0933 0.48534,0.0933 h 5.74932 l -0.54133,2.55733 z"
             style="font-style:italic;font-variant:normal;font-weight:normal;font-stretch:normal;font-size:18.66664505px;line-height:25px;font-family:'Hemi Head';-inkscape-font-specification:'Hemi Head, Italic';font-variant-ligatures:normal;font-variant-caps:normal;font-variant-numeric:normal;font-feature-settings:normal;text-align:start;letter-spacing:0px;word-spacing:0px;writing-mode:lr-tb;text-anchor:start;fill:#000000;fill-opacity:1;stroke:none;stroke-width:0.13451841px;stroke-linecap:butt;stroke-linejoin:miter;stroke-opacity:1"
             id="path4915"
             inkscape:connector-curvature="0" />
          <path
             inkscape:connector-curvature="0"
             id="path4917"
             transform="matrix(0.26458333,0,0,0.26458333,0,17.6)"
             d="m -891.70117,-478.68945 c -6.04846,0 -10.52915,1.345 -13.44141,4.0332 -2.80017,2.6882 -4.81474,6.88718 -6.04687,12.59961 l -3.41993,16.19922 h 22.11329 l 1.2207,0.63476 1.75977,-8.43359 c 0.33602,-1.90436 0.83966,-3.13547 1.51171,-3.69531 0.78408,-0.67205 2.07119,-1.00782 3.86329,-1.00782 h 5.16992 l -0.48047,-0.86914 -0.47656,-19.46093 z m 27.6914,0 0.47071,19.21484 -0.51172,1.11523 h 13.17773 c 3.02423,0 4.53516,0.89535 4.53516,2.6875 0,0.224 -0.11212,0.89553 -0.33594,2.01563 l -1.62695,7.79883 h 23.57812 l 3.41993,-16.19922 c 0.55984,-2.80023 0.83984,-4.98464 0.83984,-6.55274 0,-3.47228 -1.00924,-5.99244 -3.02539,-7.56054 -2.01615,-1.68013 -5.48767,-2.51953 -10.41602,-2.51953 z m 12.60743,47.68359 -2.4961,11.96094 c -0.33602,1.68012 -0.95161,2.85529 -1.84765,3.52734 -0.89611,0.67205 -2.35104,1.00977 -4.36719,1.00977 h -2.32422 l 0.50977,20.83203 h 10.04687 c 6.16048,0 10.63928,-1.34305 13.43945,-4.03125 2.9122,-2.6882 4.98467,-6.88913 6.2168,-12.60156 l 4.14258,-19.62891 h -21.11719 l -1.23633,-0.5918 c -0.32747,-0.15649 -0.64282,-0.31851 -0.96679,-0.47656 z m -66.56641,1.06836 -4.14258,19.62891 c -0.55984,2.80023 -0.83984,4.98463 -0.83984,6.55273 0,3.47228 1.00924,6.04839 3.02539,7.72852 2.12818,1.56809 5.54375,2.35156 10.24805,2.35156 h 31.83203 l -0.50977,-20.83203 h -15.02539 c -2.46421,0 -3.69531,-0.78536 -3.69531,-2.35352 v -1.00781 c 0.11161,-0.33579 0.22373,-0.72755 0.33594,-1.17578 l 2.27343,-10.89258 z"
             style="font-style:italic;font-variant:normal;font-weight:normal;font-stretch:normal;font-size:18.66664505px;line-height:25px;font-family:'Hemi Head';-inkscape-font-specification:'Hemi Head, Italic';font-variant-ligatures:normal;font-variant-caps:normal;font-variant-numeric:normal;font-feature-settings:normal;text-align:start;letter-spacing:0px;word-spacing:0px;writing-mode:lr-tb;text-anchor:start;fill:#000000;fill-opacity:1;stroke:none;stroke-width:1.21075714px;stroke-linecap:butt;stroke-linejoin:miter;stroke-opacity:1" />
          <path
             transform="matrix(2.3814294,0,0,2.3814294,-501.75092,-813.02601)"
             d="m 127.26196,305.05466 1.4,-6.66399 q 0.0373,-0.18667 0.0373,-0.224 0,-0.29867 -0.46667,-0.29867 h -3.90133 q -0.28,0 -0.41067,0.112 -0.13066,0.0933 -0.20533,0.41067 l -1.4,6.66399 h -2.61333 l 1.99733,-9.44532 h 2.52 l -0.224,1.02666 q 0.672,-1.02666 1.848,-1.02666 h 4.23733 q 0.76533,0 1.10133,0.26133 0.35467,0.26134 0.35467,0.87733 0,0.35467 -0.0747,0.70934 l -1.60533,7.59732 z"
             style="font-style:italic;font-variant:normal;font-weight:normal;font-stretch:normal;font-size:18.66664505px;line-height:25px;font-family:'Hemi Head';-inkscape-font-specification:'Hemi Head, Italic';font-variant-ligatures:normal;font-variant-caps:normal;font-variant-numeric:normal;font-feature-settings:normal;text-align:start;letter-spacing:0px;word-spacing:0px;writing-mode:lr-tb;text-anchor:start;fill:#000000;fill-opacity:1;stroke:none;stroke-width:0.13451841px;stroke-linecap:butt;stroke-linejoin:miter;stroke-opacity:1"
             id="path4919"
             inkscape:connector-curvature="0" />
          <path
             transform="matrix(2.3814294,0,0,2.3814294,-501.75092,-813.02601)"
             d="m 133.54212,305.05466 q -0.784,0 -1.13866,-0.26133 -0.336,-0.28 -0.336,-0.85867 0,-0.26133 0.0933,-0.728 l 1.21333,-5.74932 q 0.20534,-0.952 0.672,-1.4 0.48534,-0.448 1.49333,-0.448 h 6.664 l -0.48534,2.296 h -5.31999 q -0.31733,0 -0.42933,0.0933 -0.112,0.0933 -0.18667,0.41067 l -0.80267,3.77066 q -0.0187,0.0747 -0.0373,0.13066 0,0.056 0,0.112 0,0.28 0.42933,0.28 h 5.32 l -0.48533,2.352 z"
             style="font-style:italic;font-variant:normal;font-weight:normal;font-stretch:normal;font-size:18.66664505px;line-height:25px;font-family:'Hemi Head';-inkscape-font-specification:'Hemi Head, Italic';font-variant-ligatures:normal;font-variant-caps:normal;font-variant-numeric:normal;font-feature-settings:normal;text-align:start;letter-spacing:0px;word-spacing:0px;writing-mode:lr-tb;text-anchor:start;fill:#000000;fill-opacity:1;stroke:none;stroke-width:0.13451841px;stroke-linecap:butt;stroke-linejoin:miter;stroke-opacity:1"
             id="path4921"
             inkscape:connector-curvature="0" />
          <path
             transform="matrix(2.3814294,0,0,2.3814294,-501.75092,-813.02601)"
             d="m 143.60286,305.05466 q -0.80266,0 -1.15733,-0.26133 -0.336,-0.28 -0.336,-0.85867 0,-0.26133 0.0933,-0.728 l 1.21334,-5.74932 q 0.20533,-0.952 0.672,-1.4 0.48533,-0.448 1.51199,-0.448 h 6.384 q 0.70933,0 1.008,0.28 0.31733,0.26133 0.31733,0.80266 0,0.336 -0.0747,0.69067 l -0.784,3.71466 h -6.29066 l 0.31734,-1.568 h 3.80799 l 0.28,-1.26933 q 0.0187,-0.0933 0.0187,-0.24266 0,-0.14934 -0.0933,-0.20534 -0.0747,-0.056 -0.29866,-0.056 h -3.752 q -0.31733,0 -0.42933,0.112 -0.112,0.0933 -0.18667,0.41067 l -0.87733,4.06933 q -0.0187,0.0933 -0.0373,0.168 0,0.056 0,0.112 0,0.168 0.0933,0.224 0.0933,0.056 0.336,0.056 h 6.36533 l -0.448,2.14666 z"
             style="font-style:italic;font-variant:normal;font-weight:normal;font-stretch:normal;font-size:18.66664505px;line-height:25px;font-family:'Hemi Head';-inkscape-font-specification:'Hemi Head, Italic';font-variant-ligatures:normal;font-variant-caps:normal;font-variant-numeric:normal;font-feature-settings:normal;text-align:start;letter-spacing:0px;word-spacing:0px;writing-mode:lr-tb;text-anchor:start;fill:#000000;fill-opacity:1;stroke:none;stroke-width:0.13451841px;stroke-linecap:butt;stroke-linejoin:miter;stroke-opacity:1"
             id="path4923"
             inkscape:connector-curvature="0" />
          <path
             transform="matrix(2.3814294,0,0,2.3814294,-501.75092,-813.02601)"
             d="m 155.08635,305.05466 q -0.70933,0 -1.02667,-0.26133 -0.31733,-0.28 -0.31733,-0.82133 0,-0.26134 0.0933,-0.69067 l 0.46667,-2.24 q 0.112,-0.52266 0.26133,-0.87733 0.14934,-0.35467 0.37334,-0.56 0.224,-0.20533 0.54133,-0.28 0.31733,-0.0933 0.76533,-0.0933 h 4.79733 l -0.336,1.60533 h -3.43466 q -0.26134,0 -0.37334,0.0933 -0.112,0.0933 -0.168,0.392 l -0.20533,0.98933 q -0.0187,0.0933 -0.0373,0.14934 0,0.056 0,0.112 0,0.24266 0.35466,0.24266 h 4.368 l 0.98933,-4.62932 q 0.0187,-0.0747 0.0187,-0.20534 0,-0.14933 -0.0933,-0.224 -0.0933,-0.0933 -0.35467,-0.0933 h -6.40266 l 0.42933,-2.05333 h 7.72799 q 0.82134,0 1.15734,0.28 0.336,0.26133 0.336,0.84 0,0.26133 -0.0933,0.728 l -1.60533,7.59732 z"
             style="font-style:italic;font-variant:normal;font-weight:normal;font-stretch:normal;font-size:18.66664505px;line-height:25px;font-family:'Hemi Head';-inkscape-font-specification:'Hemi Head, Italic';font-variant-ligatures:normal;font-variant-caps:normal;font-variant-numeric:normal;font-feature-settings:normal;text-align:start;letter-spacing:0px;word-spacing:0px;writing-mode:lr-tb;text-anchor:start;fill:#000000;fill-opacity:1;stroke:none;stroke-width:0.13451841px;stroke-linecap:butt;stroke-linejoin:miter;stroke-opacity:1"
             id="path4925"
             inkscape:connector-curvature="0" />
          <path
             transform="matrix(2.3814294,0,0,2.3814294,-501.75092,-813.02601)"
             d="m 165.29438,305.05466 2.83733,-13.40265 h 2.61333 l -2.83733,13.40265 z"
             style="font-style:italic;font-variant:normal;font-weight:normal;font-stretch:normal;font-size:18.66664505px;line-height:25px;font-family:'Hemi Head';-inkscape-font-specification:'Hemi Head, Italic';font-variant-ligatures:normal;font-variant-caps:normal;font-variant-numeric:normal;font-feature-settings:normal;text-align:start;letter-spacing:0px;word-spacing:0px;writing-mode:lr-tb;text-anchor:start;fill:#000000;fill-opacity:1;stroke:none;stroke-width:0.13451841px;stroke-linecap:butt;stroke-linejoin:miter;stroke-opacity:1"
             id="path4927"
             inkscape:connector-curvature="0" />
          <path
             transform="matrix(2.3814294,0,0,2.3814294,-501.75092,-813.02601)"
             d="m 171.52991,305.05466 q -0.80267,0 -1.15733,-0.26133 -0.336,-0.28 -0.336,-0.85867 0,-0.26133 0.0933,-0.728 l 1.21333,-5.74932 q 0.20534,-0.952 0.672,-1.4 0.48534,-0.448 1.512,-0.448 h 6.38399 q 0.70934,0 1.008,0.28 0.31734,0.26133 0.31734,0.80266 0,0.336 -0.0747,0.69067 l -0.784,3.71466 h -6.29066 l 0.31733,-1.568 h 3.808 l 0.28,-1.26933 q 0.0187,-0.0933 0.0187,-0.24266 0,-0.14934 -0.0933,-0.20534 -0.0747,-0.056 -0.29866,-0.056 h -3.752 q -0.31733,0 -0.42933,0.112 -0.112,0.0933 -0.18667,0.41067 l -0.87733,4.06933 q -0.0187,0.0933 -0.0373,0.168 0,0.056 0,0.112 0,0.168 0.0933,0.224 0.0933,0.056 0.336,0.056 h 6.36532 l -0.448,2.14666 z"
             style="font-style:italic;font-variant:normal;font-weight:normal;font-stretch:normal;font-size:18.66664505px;line-height:25px;font-family:'Hemi Head';-inkscape-font-specification:'Hemi Head, Italic';font-variant-ligatures:normal;font-variant-caps:normal;font-variant-numeric:normal;font-feature-settings:normal;text-align:start;letter-spacing:0px;word-spacing:0px;writing-mode:lr-tb;text-anchor:start;fill:#000000;fill-opacity:1;stroke:none;stroke-width:0.13451841px;stroke-linecap:butt;stroke-linejoin:miter;stroke-opacity:1"
             id="path4929"
             inkscape:connector-curvature="0" />
          <path
             transform="matrix(2.3814294,0,0,2.3814294,-501.75092,-813.02601)"
             d="m 183.1254,305.05466 q -0.784,0 -1.13867,-0.26133 -0.336,-0.28 -0.336,-0.85867 0,-0.26133 0.0933,-0.728 l 1.21333,-5.74932 q 0.20533,-0.952 0.728,-1.4 0.54133,-0.448 1.43733,-0.448 h 4.46133 l -0.48534,2.25866 h -3.11733 q -0.29866,0 -0.42933,0.112 -0.112,0.0933 -0.18666,0.41067 l -0.80267,3.82666 q -0.0373,0.18667 -0.0373,0.24267 0,0.28 0.42933,0.28 h 4.05066 l 2.352,-11.08799 h 2.632 l -2.83733,13.40265 z"
             style="font-style:italic;font-variant:normal;font-weight:normal;font-stretch:normal;font-size:18.66664505px;line-height:25px;font-family:'Hemi Head';-inkscape-font-specification:'Hemi Head, Italic';font-variant-ligatures:normal;font-variant-caps:normal;font-variant-numeric:normal;font-feature-settings:normal;text-align:start;letter-spacing:0px;word-spacing:0px;writing-mode:lr-tb;text-anchor:start;fill:#000000;fill-opacity:1;stroke:none;stroke-width:0.13451841px;stroke-linecap:butt;stroke-linejoin:miter;stroke-opacity:1"
             id="path4931"
             inkscape:connector-curvature="0" />
          <rect
             ry="0.66888762"
             transform="matrix(0.70235252,0,-0.20810445,0.70235253,-208.93649,-310.68913)"
             y="272.9556"
             x="314.67444"
             height="2.0066528"
             width="5.2773499"
             id="rect4901"
             style="color:#000000;display:inline;overflow:visible;visibility:visible;opacity:1;vector-effect:none;fill:#000000;fill-opacity:1;fill-rule:nonzero;stroke:none;stroke-width:1.36831355;stroke-linecap:butt;stroke-linejoin:miter;stroke-miterlimit:4;stroke-dasharray:none;stroke-dashoffset:0;stroke-opacity:1;marker:none;paint-order:normal;enable-background:accumulate" />
          <path
             sodipodi:nodetypes="ccccccc"
             transform="matrix(0.9437128,-0.06889987,0.05114218,0.70048805,-357.89765,-288.68065)"
             inkscape:connector-curvature="0"
             id="path4903"
             d="m 321.29726,277.41485 0.91515,1.42407 -0.59457,2.84071 0.53824,1.10285 -0.59457,2.3122 -1.7837,-0.57806 z"
             style="color:#000000;display:inline;overflow:visible;visibility:visible;opacity:1;vector-effect:none;fill:#000000;fill-opacity:1;fill-rule:nonzero;stroke:none;stroke-width:1.17887032;stroke-linecap:butt;stroke-linejoin:miter;stroke-miterlimit:4;stroke-dasharray:none;stroke-dashoffset:0;stroke-opacity:1;marker:none;paint-order:normal;enable-background:accumulate" />
          <rect
             style="color:#000000;display:inline;overflow:visible;visibility:visible;opacity:1;vector-effect:none;fill:#000000;fill-opacity:1;fill-rule:nonzero;stroke:none;stroke-width:1.36831355;stroke-linecap:butt;stroke-linejoin:miter;stroke-miterlimit:4;stroke-dasharray:none;stroke-dashoffset:0;stroke-opacity:1;marker:none;paint-order:normal;enable-background:accumulate"
             id="rect4819"
             width="3.3341913"
             height="2.0066528"
             x="314.67444"
             y="272.9556"
             transform="matrix(0.70235252,0,-0.20810445,0.70235253,-208.19062,-311.14186)"
             ry="0.66888762" />
          <g
             style="stroke-width:1.21075714"
             id="g4913"
             transform="translate(-196.54762,-188.789)">
            <circle
               transform="matrix(0.17575573,0,0,0.17575573,-11.378102,42.073751)"
               r="8.2496138"
               cy="275.51968"
               cx="-128.09198"
               id="circle4909"
               style="color:#000000;display:inline;overflow:visible;visibility:visible;opacity:1;vector-effect:none;fill:#ff0000;fill-opacity:1;fill-rule:nonzero;stroke:none;stroke-width:5.46803474;stroke-linecap:butt;stroke-linejoin:miter;stroke-miterlimit:4;stroke-dasharray:none;stroke-dashoffset:0;stroke-opacity:1;marker:none;paint-order:normal;enable-background:accumulate" />
          </g>
          <g
             style="stroke-width:1.21075714"
             id="g4997"
             transform="matrix(1,0,0.0244922,1,-155.89275,-141.02401)">
            <path
               inkscape:connector-curvature="0"
               d="m -287.45444,-1.6366843 h 25.58495 V 58.563198 l -12.69439,12.332165 -12.89056,-12.332165 z m 0,211.6646243 h 25.58495 v -60.19988 l -12.69439,-12.33216 -12.89056,12.33216 z M -65.463583,97.723989 V 110.66727 H -184.46049 l -24.37695,-6.42202 24.37695,-6.521261 z m -418.396777,0 v 12.943281 h 118.99691 l 24.37695,-6.42202 -24.37695,-6.521261 z m 153.84225,6.939041 c 0,-15.833681 25.60162,-29.10811 56.90001,-29.495911 31.29839,-0.387802 56.91093,12.252059 56.91093,28.085741 0,15.83369 -25.61254,29.10279 -56.91093,29.49059 -31.29839,0.3878 -56.90001,-12.24673 -56.90001,-28.08042 z m 21.90052,-0.27135 c 0,9.84467 15.53955,17.51353 34.99949,17.27241 19.45994,-0.24112 34.99949,-8.29506 34.99949,-18.13973 0,-9.844681 -15.53955,-17.513509 -34.99949,-17.272391 -19.45994,0.241118 -34.99949,8.29503 -34.99949,18.139711 z"
               style="color:#000000;display:inline;overflow:visible;visibility:visible;opacity:1;vector-effect:none;fill:#000000;fill-opacity:1;fill-rule:nonzero;stroke:none;stroke-width:18.60524559;stroke-linecap:butt;stroke-linejoin:miter;stroke-miterlimit:4;stroke-dasharray:none;stroke-dashoffset:0;stroke-opacity:1;marker:none;paint-order:normal;enable-background:accumulate"
               transform="matrix(0,0.07347935,0.14524639,0,-90.691946,62.801402)"
               id="path4995" />
          </g>
          <path
             transform="matrix(0.26458333,0,0,0.26458333,0.30970889,17.6)"
             inkscape:connector-curvature="0"
             id="path5174"
             d="m -152.0047,-512.87582 -24.58162,116.8881 -7.52499,0.33444 25.25051,-117.55699 z"
             style="color:#000000;display:inline;overflow:visible;visibility:visible;opacity:1;vector-effect:none;fill:url(#linearGradient5182);fill-opacity:1;fill-rule:nonzero;stroke:none;stroke-width:1.21075714;stroke-linecap:butt;stroke-linejoin:miter;stroke-miterlimit:4;stroke-dasharray:none;stroke-dashoffset:0;stroke-opacity:1;marker:none;paint-order:normal;enable-background:accumulate" />
        </g>
      </g>
    </g>
  </g>
</svg>
